<svg xmlns="http://www.w3.org/2000/svg" width="39.403" height="55.051" viewBox="0 0 39.403 55.051">
  <g id="Groupe_73" data-name="Groupe 73" transform="translate(-1851 -39.467)">
    <g id="Soustraction_3" data-name="Soustraction 3" transform="translate(1851 58.026)" fill="none">
      <path d="M39.4,36.492H0a72.141,72.141,0,0,1,.4-7.619,65.2,65.2,0,0,1,1.148-7.1,55.163,55.163,0,0,1,1.816-6.422,43.171,43.171,0,0,1,2.406-5.6A31.11,31.11,0,0,1,8.686,5.143a20.961,20.961,0,0,1,3.347-3.486,15.018,15.018,0,0,1,2.384-1.6,11,11,0,0,0,5.167,1.287A11.01,11.01,0,0,0,24.868,0a14.935,14.935,0,0,1,2.5,1.657,20.978,20.978,0,0,1,3.347,3.486,31.129,31.129,0,0,1,2.916,4.616,43.2,43.2,0,0,1,2.406,5.6,55.163,55.163,0,0,1,1.816,6.422A65.255,65.255,0,0,1,39,28.873a72.151,72.151,0,0,1,.4,7.619Z" stroke="none"/>
      <path d="M 34.21924209594727 31.49203681945801 C 34.16734313964844 30.79063606262207 34.10452651977539 30.09368705749512 34.03087615966797 29.40290832519531 C 33.7916259765625 27.15893745422363 33.43535614013672 24.95498657226562 32.97199630737305 22.8524169921875 C 32.52166366577148 20.80920791625977 31.96659469604492 18.84527778625488 31.3221549987793 17.01503753662109 C 30.69588470458984 15.23622703552246 29.98136520385742 13.57240772247314 29.19866561889648 12.07022762298584 C 28.4426441192627 10.61960792541504 27.62144470214844 9.316427230834961 26.75781440734863 8.196847915649414 C 25.97566604614258 7.182860851287842 25.15972518920898 6.320358276367188 24.33053588867188 5.630921363830566 C 22.79959678649902 6.108119487762451 21.21223068237305 6.348737239837646 19.58430480957031 6.348737239837646 C 18.01840209960938 6.348737239837646 16.48861312866211 6.12558126449585 15.01023101806641 5.68308687210083 C 14.20255661010742 6.363476276397705 13.40788650512695 7.208032131195068 12.6452751159668 8.196897506713867 C 11.78113460540771 9.317157745361328 10.96000480651855 10.62018775939941 10.20446491241455 12.07024765014648 C 9.422055244445801 13.57149791717529 8.707614898681641 15.23515701293945 8.080924987792969 17.01519775390625 C 7.436544895172119 18.84526824951172 6.88147497177124 20.8091869354248 6.431065082550049 22.85269737243652 C 5.967645168304443 24.95469665527344 5.611334800720215 27.15850830078125 5.372035026550293 29.40303802490234 C 5.298387050628662 30.09363746643066 5.235555648803711 30.79068565368652 5.183662414550781 31.49203681945801 L 34.21924209594727 31.49203681945801 M 39.4034538269043 36.49203872680664 L 5.006103492632974e-06 36.49203872680664 C 5.006103492632974e-06 33.92571640014648 0.1347350031137466 31.36233711242676 0.4002250134944916 28.87282752990723 C 0.6590250134468079 26.44546699523926 1.045305013656616 24.05782699584961 1.548325061798096 21.77621650695801 C 2.042145013809204 19.53571701049805 2.653275012969971 17.37517738342285 3.364744901657104 15.35458755493164 C 4.069674968719482 13.35230731964111 4.879085063934326 11.46981716156006 5.770514965057373 9.759387016296387 C 6.661624908447266 8.049137115478516 7.642624855041504 6.495967388153076 8.686264991760254 5.143007278442383 C 9.739245414733887 3.777627468109131 10.86519527435303 2.60488748550415 12.03285503387451 1.657357454299927 C 12.8041353225708 1.031197428703308 13.6062650680542 0.494487464427948 14.41695499420166 0.06213745474815369 C 16.04145431518555 0.9158674478530884 17.77993583679199 1.348737478256226 19.58430480957031 1.348737478256226 C 21.43325424194336 1.348737478256226 23.21099472045898 0.8949574828147888 24.86812591552734 -2.543945356592303e-06 C 25.71955490112305 0.4431174695491791 26.56133460998535 1.000737428665161 27.37028503417969 1.657357454299927 C 28.53773498535156 2.604897499084473 29.6636848449707 3.777647495269775 30.71686553955078 5.143007278442383 C 31.75982475280762 6.495077610015869 32.7408332824707 8.048247337341309 33.63262557983398 9.759387016296387 C 34.52447509765625 11.47104740142822 35.33388519287109 13.35354709625244 36.03839492797852 15.35458755493164 C 36.74985504150391 17.37517738342285 37.36098480224609 19.53571701049805 37.85480499267578 21.77621650695801 C 38.35776519775391 24.0584774017334 38.74396514892578 26.44611740112305 39.00269317626953 28.87282752990723 C 39.26826477050781 31.36355781555176 39.40292358398438 33.92687606811523 39.40292358398438 36.49155807495117 L 39.4034538269043 36.49203872680664 Z" stroke="none" fill="#c600ff"/>
    </g>
    <g id="Ellipse_7" data-name="Ellipse 7" transform="translate(1858.588 39.467)" fill="none" stroke="#c600ff" stroke-width="5">
      <circle cx="12.114" cy="12.114" r="12.114" stroke="none"/>
      <circle cx="12.114" cy="12.114" r="9.614" fill="none"/>
    </g>
  </g>
</svg>
